<?xml version="1.0" encoding="iso-8859-1"?>
<!-- Generator: Adobe Illustrator 19.0.0, SVG Export Plug-In . SVG Version: 6.00 Build 0)  -->
<svg version="1.1" id="Layer_1"
	xmlns="http://www.w3.org/2000/svg"
	xmlns:xlink="http://www.w3.org/1999/xlink" x="0px" y="0px" viewBox="0 0 512 512" style="enable-background:new 0 0 512 512;" xml:space="preserve">
	<path style="fill:#bc4749;" d="M327.999,200.005c0,24,35.903,46.167,55.999,63.999l32-47.999c-20.096-17.832-24-55.999-24-79.999"/>
	<path style="fill:#D3463C;" d="M415.997,216.005c-8.72-7.736-14.392-19.312-18.016-31.895c-26.856,0.96-48.855,20.792-53.159,46.663
	c12.048,12.128,28.032,23.352,39.167,33.231L415.997,216.005z"/>
	<path style="fill:#bc4749;" d="M375.158,512H88.843c-9.304,0-16.84-7.376-16.84-16.472V389.482
	c0-73.383,35.015-119.83,111.998-131.774c14.752-2.28,83.799-2.264,95.999,0c71.999,13.456,111.998,60.671,111.998,131.774v106.054
	C391.998,504.624,384.454,512,375.158,512z"/>
	<path style="fill:#D3463C;" d="M232,480c-59.159,0-107.478-45.887-111.59-103.998c-0.192,2.656-0.408,5.296-0.408,8
	C120.002,445.857,170.145,496,232,496s111.998-50.143,111.998-111.998c0-2.704-0.216-5.344-0.408-8
	C339.479,434.113,291.159,480,232,480z"/>
	<path style="fill:#E2E5E7;" d="M327.999,192.005v63.999H136.002v-63.999h-16v63.999v111.998C120.002,429.857,170.145,480,232,480
	s111.998-50.143,111.998-111.998V256.004v-63.999H327.999z"/>
	<path style="fill:#bc4749;" d="M391.998,135.998c0,28.648-24.864,29.6-39.999,40.007c-24.536,16.856-49.543,31.999-95.999,31.999
	c-75.111,0-135.998,3.096-135.998-72.007S180.889,0,256,0S391.998,60.895,391.998,135.998z"/>
	<path style="fill:#CAD1D8;" d="M220.001,464.001c-28.144,0-53.999-9.488-74.815-25.28C165.721,463.905,196.969,480,232,480
	c61.855,0,111.998-50.143,111.998-111.998c0-4.608-0.36-9.128-0.904-13.592C335.943,416.098,283.6,464.001,220.001,464.001z"/>
	<path style="fill:#FFFFFF;" d="M270.784,322.267c-1.248-1.424-3.28-2.264-5.456-2.264h-66.655c-2.168,0-4.2,0.84-5.456,2.264
	c-1.248,1.416-1.56,3.232-0.832,4.864c6.776,15.112,22.32,24.864,39.607,24.864s32.831-9.76,39.607-24.864
	C272.344,325.499,272.032,323.683,270.784,322.267z"/>
	<g>
		<rect x="327.999" y="191.997" style="fill:#CAD1D8;" width="16" height="16"/>
		<rect x="120.002" y="191.997" style="fill:#CAD1D8;" width="16" height="16"/>
	</g>
	<path style="fill:#EFC9AE;" d="M136.002,192.005v63.999c0,17.672,14.328,32,31.999,32h-31.999l0,0h159.998
	c17.672,0,31.999-14.328,31.999-32v-63.999H136.002z"/>
	<circle style="fill:#E2E5E7;" cx="399.998" cy="239.996" r="39.999"/>
	<circle style="fill:#EFC9AE;" cx="232" cy="287.996" r="16"/>
	<g>
		<circle style="fill:#123247;" cx="200.001" cy="239.996" r="16"/>
		<circle style="fill:#123247;" cx="264" cy="239.996" r="16"/>
	</g>
	<g>
		<circle style="fill:#E2E5E7;" cx="196.001" cy="236.004" r="4"/>
		<circle style="fill:#E2E5E7;" cx="260" cy="236.004" r="4"/>
	</g>
	<rect x="136.002" y="191.997" style="fill:#DCB79F;" width="191.997" height="16"/>
	<path style="fill:#E2E5E7;" d="M367.998,168.005c0-13.2-10.8-24-24-24H120.002c-13.2,0-24,10.8-24,24l0,0c0,13.2,10.8,24,24,24
	h223.997C357.198,192.005,367.998,181.205,367.998,168.005L367.998,168.005z"/>
	<path style="fill:#D1D9E1;" d="M120.002,192.005h223.997c13.2,0,24-10.8,24-24H96.002
	C96.002,181.205,106.802,192.005,120.002,192.005z"/>
	<g>
		<path style="fill:#EDBAA7;" d="M264,288.004c0-8.832,7.168-16,16-16c8.832,0,16,7.168,16,16H264z"/>
		<path style="fill:#EDBAA7;" d="M168.001,288.004c0-8.832,7.168-16,16-16s16,7.168,16,16H168.001z"/>
	</g>
</svg>
